# File created by Blade
# Date/Time:  Mon Sep 22 15:50:36 2014
# Frame Rate: 120.000 fps
#------------------------------------------------------
:FULLY-SPECIFIED
:DEGREES
2463
root 2.700479 37.052357 3.201648 -0.810919 -2.316301 2.576453
RightUpLeg 8.923812 -5.482389 -5.477051
RightLeg -4.525053 -0.000000 0.000000
RightFoot -13.060945 -15.964509 16.346160
RightToeBase 14.548024 -0.000000 -0.000000
LeftUpLeg 7.902243 2.080530 -0.332454
LeftLeg -3.127894 -0.000000 0.000000
LeftFoot -9.630210 13.495382 -17.293458
LeftToeBase 9.906544 -0.000000 -0.000000
Spine -0.783144 -1.765714 -0.051523
RightShoulder 6.144239 -25.313450 -10.515892
RightArm 23.880348 -28.430612 59.873243
RightForeArm 14.266341 -0.000000 31.224331
RightHand 3.063802 -0.000000 -0.877433
RightHandThumb1 -24.326973 -0.000000 -32.862282
LeftShoulder -15.045104 26.373072 16.679224
LeftArm 30.033741 -49.849453 -35.282209
LeftForeArm -60.081811 -0.000000 112.072078
LeftHand -25.632687 -0.000000 24.168317
LeftHandThumb1 -26.253704 0.000000 33.147579
Head 19.120655 20.330974 11.566514
2464
root 2.701426 37.052888 3.201454 -0.893985 -2.073018 2.581613
RightUpLeg 9.057901 -5.488179 -5.473624
RightLeg -4.524139 -0.000000 0.000000
RightFoot -13.145922 -16.160603 16.435470
RightToeBase 14.572754 -0.000000 -0.000000
LeftUpLeg 7.942927 1.914753 -0.333739
LeftLeg -3.096187 -0.000000 0.000000
LeftFoot -9.608276 13.441481 -17.272581
LeftToeBase 9.918512 -0.000000 -0.000000
Spine -0.788189 -1.824380 -0.084825
RightShoulder 6.198579 -25.407279 -10.495707
RightArm 23.996312 -28.696133 59.577431
RightForeArm 14.312149 -0.000000 31.077441
RightHand 3.021153 -0.000000 -0.755080
RightHandThumb1 -24.326973 -0.000000 -32.862282
LeftShoulder -14.750972 26.703969 17.238450
LeftArm 28.016453 -45.783109 -30.702447
LeftForeArm -61.811196 0.000000 110.606971
LeftHand -26.177369 -0.000000 22.186276
LeftHandThumb1 -26.253704 0.000000 33.147579
Head 19.238335 20.106465 11.688510
2465
root 2.702898 37.054641 3.203145 -0.996956 -1.833450 2.586941
RightUpLeg 9.201922 -5.494717 -5.470651
RightLeg -4.505629 -0.000000 0.000000
RightFoot -13.229258 -16.364054 16.523219
RightToeBase 14.567728 -0.000000 -0.000000
LeftUpLeg 8.014993 1.776319 -0.334616
LeftLeg -3.080714 -0.000000 0.000000
LeftFoot -9.553884 13.379550 -17.230274
LeftToeBase 9.833226 -0.000000 -0.000000
Spine -0.768295 -1.952623 -0.110524
RightShoulder 6.295403 -25.395026 -10.483140
RightArm 24.049827 -29.014650 59.306956
RightForeArm 14.299434 0.000000 30.945167
RightHand 2.967278 -0.000000 -0.584843
RightHandThumb1 -24.326973 -0.000000 -32.862282
LeftShoulder -14.358459 27.001728 17.882769
LeftArm 26.220925 -41.460797 -26.374188
LeftForeArm -63.547388 -0.000000 109.185224
LeftHand -26.707853 0.000000 20.512867
LeftHandThumb1 -26.253704 0.000000 33.147579
Head 19.333870 20.042875 11.836239
2466
root 2.703165 37.056810 3.202833 -1.117012 -1.585947 2.579910
RightUpLeg 9.354843 -5.686139 -5.479214
RightLeg -4.472176 -0.000000 0.000000
RightFoot -13.247879 -16.390457 16.549867
RightToeBase 14.533504 -0.000000 -0.000000
LeftUpLeg 8.096440 1.632914 -0.320299
LeftLeg -3.057439 -0.000000 0.000000
LeftFoot -9.517806 13.309481 -17.183583
LeftToeBase 9.895156 -0.000000 -0.000000
Spine -0.721452 -2.164084 -0.126301
RightShoulder 6.498466 -25.465024 -10.491324
RightArm 24.191644 -29.290661 58.933019
RightForeArm 14.223984 -0.000000 30.875219
RightHand 2.852070 -0.000000 -0.571415
RightHandThumb1 -24.326973 -0.000000 -32.862282
LeftShoulder -13.894970 27.166518 18.694632
LeftArm 24.761825 -36.858000 -22.511836
LeftForeArm -65.255673 -0.000000 107.760795
LeftHand -27.743798 0.000000 18.812407
LeftHandThumb1 -26.253704 0.000000 33.147579
Head 19.454847 20.011538 12.008335
2467
root 2.703876 37.059146 3.202902 -1.227622 -1.326991 2.572243
RightUpLeg 9.509047 -5.863090 -5.481400
RightLeg -4.460198 -0.000000 0.000000
RightFoot -13.258669 -16.465530 16.551502
RightToeBase 14.509558 -0.000000 -0.000000
LeftUpLeg 8.172377 1.460860 -0.309312
LeftLeg -3.043017 -0.000000 0.000000
LeftFoot -9.475958 13.249461 -17.166943
LeftToeBase 9.863925 -0.000000 -0.000000
Spine -0.696452 -2.381990 -0.146395
RightShoulder 6.649283 -25.570739 -10.451193
RightArm 24.415956 -29.629146 58.454425
RightForeArm 13.969631 0.000000 30.838335
RightHand 2.642836 -0.000000 -0.388864
RightHandThumb1 -24.326973 -0.000000 -32.862282
LeftShoulder -13.353315 27.605268 19.506125
LeftArm 23.841527 -32.418113 -19.119822
LeftForeArm -67.416578 -0.000000 106.323993
LeftHand -28.791259 -0.000000 17.281472
LeftHandThumb1 -26.253704 0.000000 33.147579
Head 19.589577 20.021461 12.240866
